<svg width="81" height="71" viewBox="0 0 81 71" fill="none" xmlns="http://www.w3.org/2000/svg">
<path d="M32.7224 41.4168C41.6077 41.4168 48.8336 35.225 48.8336 27.6112C48.8336 19.9975 41.6077 13.8057 32.7224 13.8057C23.8372 13.8057 16.6113 19.9975 16.6113 27.6112C16.6113 35.225 23.8372 41.4168 32.7224 41.4168ZM32.7224 20.7084C37.1651 20.7084 40.778 23.8043 40.778 27.6112C40.778 31.4181 37.1651 34.514 32.7224 34.514C28.2798 34.514 24.6669 31.4181 24.6669 27.6112C24.6669 23.8043 28.2798 20.7084 32.7224 20.7084Z" fill="white"/>
<path d="M30.4265 69.3633C31.0965 69.7864 31.8991 70.0139 32.7223 70.0139C33.5456 70.0139 34.3482 69.7864 35.0181 69.3633C36.2215 68.6107 64.5034 50.5504 64.3886 28.0058C64.3886 12.5641 50.1823 0 32.7223 0C15.2623 0 1.05601 12.5641 1.05601 27.9883C0.941222 50.5504 29.2232 68.6107 30.4265 69.3633ZM32.7223 7.00144C45.8203 7.00144 56.4721 16.4219 56.4721 28.0233C56.5552 43.5595 39.1031 57.5099 32.7223 62.0853C26.3455 57.5064 8.88947 43.5525 8.97259 28.0058C8.97259 16.4219 19.6243 7.00144 32.7223 7.00144Z" fill="white"/>
</svg>
