<svg width="73" height="73" viewBox="0 0 73 73" fill="none" xmlns="http://www.w3.org/2000/svg">
<g clip-path="url(#clip0_964_17616)">
<path d="M70.3484 2.66199C69.9592 2.25903 69.4674 1.98003 68.9308 1.85781C68.3943 1.73558 67.8354 1.77521 67.3198 1.97202L3.8615 25.9708C3.31422 26.1867 2.84305 26.5706 2.51056 27.0716C2.17807 27.5726 2 28.1669 2 28.7756C2 29.3844 2.17807 29.9787 2.51056 30.4797C2.84305 30.9807 3.31422 31.3646 3.8615 31.5805L31.5524 43.0999L42.6287 71.8984C42.8368 72.4426 43.1935 72.9115 43.6549 73.2473C44.1162 73.5832 44.6619 73.7712 45.2248 73.7883C45.8077 73.7759 46.3733 73.58 46.847 73.2266C47.3207 72.8732 47.6804 72.3787 47.8785 71.8084L70.9542 5.81183C71.1507 5.28108 71.1981 4.70317 71.0909 4.14548C70.9836 3.58779 70.7261 3.0733 70.3484 2.66199ZM45.2248 62.3889L37.1771 41.39L50.9937 27.0207L46.9266 22.791L32.9946 37.2802L12.9187 28.7906L63.4834 9.80162L45.2248 62.3889Z" fill="#0D5C63"/>
</g>
<defs>
<clipPath id="clip0_964_17616">
<rect width="72" height="72" fill="white" transform="translate(0.5 0.5)"/>
</clipPath>
</defs>
</svg>
